 <svg width="84" height="24" viewBox="0 0 84 24" fill="white" xmlns="http://www.w3.org/2000/svg"><path d="M7.54 4.489H5.323v13.63h2.219c3.9 0 7.49-.849 7.49-6.834 0-5.985-3.59-6.796-7.49-6.796zM7.454 0c7.391 0 13.225 2.718 13.225 11.297 0 8.617-5.834 11.323-13.225 11.323H0V0h7.453zM27.424 14.165c0 3.53 1.558 4.863 3.652 4.863 2.094 0 3.652-1.346 3.652-4.863 0-3.59-1.62-4.838-3.652-4.838s-3.652 1.247-3.652 4.838zm12.538 0c0 6.085-4.237 8.866-8.886 8.866-4.65 0-8.887-2.78-8.887-8.866 0-6.085 4.238-8.828 8.887-8.828s8.886 2.743 8.886 8.828zM47.006 8.043c.748-1.247 2.555-2.594 5.21-2.594 4.3 0 5.646 2.532 5.646 7.083v10.075h-5.148v-8.803c0-2.407-.087-4.365-2.592-4.365-2.219 0-3.116 1.434-3.116 4.552v8.616h-5.148V5.823h5.148v2.22zM64.683 12.42h7.266c-.087-2.12-1.558-3.155-3.527-3.155-1.845 0-3.465.935-3.74 3.155zm12.314 4.925c-1.496 3.966-5.023 5.674-8.363 5.674-5.46 0-9.199-3.304-9.199-8.89 0-5.363 4.089-8.804 8.987-8.804 5.584 0 8.987 4.214 8.638 10.2H64.62c.163 2.406 1.995 3.491 3.864 3.491 1.97 0 3.179-.686 3.777-1.683h4.736v.012zM78.192 19.839a2.783 2.783 0 0 1 2.78-2.78h.248a2.783 2.783 0 0 1 2.78 2.78 2.783 2.783 0 0 1-2.78 2.78h-.249a2.783 2.783 0 0 1-2.78-2.78z"></path></svg>