<?xml version="1.0" encoding="utf-8"?>
<!-- Generator: Adobe Illustrator 26.0.1, SVG Export Plug-In . SVG Version: 6.00 Build 0)  -->
<svg version="1.1" id="Layer_1" xmlns="http://www.w3.org/2000/svg" xmlns:xlink="http://www.w3.org/1999/xlink" x="0px" y="0px"
	 viewBox="0 0 954 140" style="enable-background:new 0 0 954 140;" xml:space="preserve">
<style type="text/css">
	.st0{fill:#009EE0;}
	.st1{fill:#22BBEA;}
	.st2{fill:#B5E8F8;}
	.st3{fill:#FFDD00;}
	.st4{fill:#FFCC00;}
	.st5{fill:#FFBB00;}
</style>
<g>
	<rect y="0" class="st0" width="14" height="130"/>
	<rect x="26" y="0" class="st1" width="14" height="130"/>
	<rect x="52" y="0" class="st2" width="14" height="130"/>
	<rect x="78" y="0" class="st3" width="14" height="130"/>
	<rect x="104" y="0" class="st4" width="14" height="65"/>
	<rect x="130" y="0" class="st5" width="14" height="130"/>
	<g transform="translate(0,0.1)">
		<path id="m" d="M188.3-0.1V50h5.2V7.3L205.4,50h4.9l11.9-41.9V50h5.3V-0.1h-7.3l-9.9,34.9c-1,3.5-1.7,6.1-2.2,8l-1.9-7.4
			l-9.8-35.5H188.3z"/>
		<rect id="i" x="237.3" y="-0.1" width="5.5" height="50.1"/>
		<g transform="translate(57.4,0)">
			<rect id="i_00000011750677230745841990000010663795193459938971_" x="294.7" y="-0.1" width="5.5" height="50.1"/>
		</g>
		<path id="n" d="M252.3-0.1V50h5.4V26.4h21.4V50h5.4V-0.1h-5.4v20.6h-21.4V-0.1H252.3z"/>
		<path id="s" d="M327.4-0.1c-3.6,0-6.9,1-9.8,2.9c-3,1.8-5.3,4.6-7,8.3c-1.7,3.7-2.6,8.2-2.6,13.5c0,5.4,0.9,10,2.6,14
			c1.7,4,3.9,6.9,6.6,8.7c2.7,1.7,6,2.7,9.8,2.7c4.3,0,8-1.4,11-4.1s5.1-6.8,6.3-12.2l-5.4-1.6c-0.8,4.1-2.2,7.2-4.4,9.3
			c-2.1,2-4.7,3.1-7.6,3.1c-4,0-7.3-1.6-9.7-4.9c-2.4-3.4-3.6-8.3-3.6-15c0-4.3,0.6-8,1.8-10.8c1.2-2.9,2.8-5,4.8-6.4s4.4-2,7.1-2
			c5.5,0,9.2,3.4,11,10.1l5.3-1.5c-1.1-4.6-3.1-8.1-6-10.4C334.8,1.2,331.4-0.1,327.4-0.1z"/>
		<path id="t" d="M348.1-0.1v5.9h13.6V50h5.4V5.8h13.6v-5.9H348.1z"/>
		<path id="e" d="M386.4-0.1V50H417v-5.9h-25.2V27h22.7v-5.8h-22.7V5.8h24.3v-5.9H386.4z"/>
		<path id="r" d="M424.6-0.1V50h5.4V29.6h10.5c5.7,0,9.6-1.4,11.9-4.2c2.3-2.9,3.5-6.6,3.5-11.1c0-3.4-0.7-6.3-2.1-8.6
			c-1.4-2.4-3.3-4-5.7-4.9c-1.7-0.6-4.4-0.9-8.1-0.9H424.6z M430,5.8h10.5c2.8,0,4.8,0.3,5.9,0.8s2,1.5,2.7,2.9
			c0.8,1.4,1.2,3.1,1.2,5.1c0,3-0.8,5.3-2.3,6.9c-1.6,1.5-4,2.2-7.4,2.2H430V5.8z"/>
		<g transform="translate(153.1,0)">
			<path id="s_00000061461137097804754100000009766935843254512808_" d="M480.5-0.1c-3.6,0-6.9,1-9.8,2.9c-3,1.8-5.3,4.6-7,8.3
				c-1.7,3.7-2.6,8.2-2.6,13.5c0,5.4,0.9,10,2.6,14c1.7,4,3.9,6.9,6.6,8.7c2.7,1.7,6,2.7,9.8,2.7c4.3,0,8-1.4,11-4.1
				s5.1-6.8,6.3-12.2l-5.4-1.6c-0.8,4.1-2.2,7.2-4.4,9.3c-2.1,2-4.7,3.1-7.6,3.1c-4,0-7.3-1.6-9.7-4.9c-2.4-3.4-3.6-8.3-3.6-15
				c0-4.3,0.6-8,1.8-10.8c1.2-2.9,2.8-5,4.8-6.4s4.4-2,7.1-2c5.5,0,9.2,3.4,11,10.1l5.3-1.5c-1.1-4.6-3.1-8.1-6-10.4
				C487.9,1.2,484.5-0.1,480.5-0.1z"/>
		</g>
		<g transform="translate(153.2,0)">
			<path id="t_00000079479933972829202490000000306563007039331748_" d="M501.3-0.1v5.9h13.6V50h5.4V5.8h13.6v-5.9H501.3z"/>
		</g>
		<path id="v" d="M539.2-0.1V50h15.6c3.7,0,6.5-0.5,8.6-1.5c2.1-1.1,3.7-2.7,5-5c1.2-2.3,1.8-5,1.8-8c0-3.1-0.7-5.6-2.1-7.7
			c-1.3-2.1-3.2-3.6-5.6-4.5c1.8-1.1,3.2-2.6,4.2-4.4c1-1.8,1.5-3.9,1.5-6.2c0-2.5-0.5-4.8-1.7-6.8c-1.2-2.1-2.6-3.6-4.5-4.5
			c-1.8-1-4.3-1.5-7.4-1.5H539.2z M544.6,5.8h8.3c3,0,5,0.2,6.2,0.7c1.1,0.4,2,1.3,2.7,2.5s1.1,2.7,1.1,4.5c0,1.9-0.4,3.4-1.2,4.6
			c-0.7,1.1-1.8,1.9-3.2,2.4c-1,0.3-2.7,0.4-5,0.4h-8.9V5.8z M544.6,26.9h9.5c2.8,0,4.9,0.3,6.2,0.9c1.3,0.6,2.4,1.5,3.1,2.9
			c0.8,1.3,1.2,2.8,1.2,4.7c0,2.1-0.4,3.8-1.2,5.2c-0.8,1.3-2,2.3-3.6,2.9c-1,0.4-2.7,0.6-5,0.6h-10.2V26.9z"/>
		<path id="o" d="M595.8-0.1c-5.6,0-10.3,2.2-14,6.7c-3.8,4.4-5.7,10.8-5.7,19c0,6.6,1.7,12.1,5.1,16.7c3.7,5.1,8.5,7.7,14.6,7.7
			c6,0,10.9-2.5,14.6-7.5c3.4-4.4,5-10.3,5-17.5c0-5.2-0.8-9.7-2.6-13.5c-1.7-3.8-4.1-6.7-7.1-8.6C602.8,0.9,599.5-0.1,595.8-0.1z
			 M595.9,5.4c2.5,0,4.9,0.8,7,2.3c2.2,1.4,3.8,3.5,4.9,6c1.3,3.3,2,6.9,2,11.1c0,6.5-1.3,11.4-4,14.7c-2.7,3.4-6.1,5-10,5
			c-3.9,0-7.2-1.6-10-4.9c-2.7-3.3-4-7.9-4-13.9c0-6.9,1.3-12,3.9-15.3C588.4,7.1,591.8,5.4,595.9,5.4z"/>
		<g transform="translate(-47.8,80)">
			<rect id="i_00000084500423067978078670000005608104871068973749_" x="189.5" y="79.9" width="5.5" height="50.1"/>
		</g>
		<g transform="translate(-47.9,80)">
			<path id="n_00000122001176765708735850000016018447538804288148_" d="M204.4,79.9V130h5.4v-23.6h21.4V130h5.4V79.9h-5.4v20.6
				h-21.4V79.9H204.4z"/>
		</g>
		<path id="f" d="M260.7,79.9v6c-4.9,0.2-8.9,2-12.2,5.4c-3.2,3.4-4.8,7.8-4.8,13.4c0,5.6,1.6,10,4.8,13.4c3.3,3.4,7.3,5.2,12.2,5.4
			v6.5h5.1v-6.5c5.3-0.3,9.4-2.2,12.4-5.7s4.5-7.9,4.5-13.1c0-5.2-1.5-9.6-4.5-13c-3.1-3.5-7.2-5.5-12.4-5.8v-6H260.7z M260.7,91.6
			v26.2c-3.4-0.2-6.1-1.4-8.2-3.7c-2.1-2.2-3.2-5.4-3.2-9.4s1.1-7.1,3.2-9.4C254.6,93,257.3,91.8,260.7,91.6z M265.8,91.6
			c3.5,0.2,6.3,1.5,8.3,3.7c2,2.3,3,5.4,3,9.4c0,4.2-1,7.4-3.1,9.5c-2.1,2.2-4.9,3.4-8.2,3.6V91.6z"/>
		<g transform="translate(-135.1,80)">
			<path id="r_00000086684481954352357950000014319974011975041460_" d="M289.5,79.9V130h5.4v-20.4h10.5c5.7,0,9.6-1.4,11.9-4.2
				c2.3-2.9,3.5-6.6,3.5-11.1c0-3.4-0.7-6.3-2.1-8.6c-1.4-2.4-3.3-4-5.7-4.9c-1.7-0.6-4.4-0.9-8.1-0.9H289.5z M294.9,85.8h10.5
				c2.8,0,4.8,0.3,5.9,0.8s2,1.5,2.7,2.9c0.8,1.4,1.2,3.1,1.2,5.1c0,3-0.8,5.3-2.3,6.9c-1.6,1.5-4,2.2-7.4,2.2h-10.6V85.8z"/>
		</g>
		<path id="a" d="M339,79.9L323.2,130h5.8l4.5-15.2h17.2l4.8,15.2h6.2l-16.8-50.1H339z M341.8,85.2l2.9,10.3l4.3,13.9h-13.9
			l4.5-14.7L341.8,85.2z"/>
		<g transform="translate(56.3,80)">
			<path id="s_00000072995430172275605580000012201289491333532081_" d="M383.7,79.9c-3.6,0-6.9,1-9.8,2.9c-3,1.8-5.3,4.6-7,8.3
				c-1.7,3.7-2.6,8.2-2.6,13.5c0,5.4,0.9,10,2.6,14c1.7,4,3.9,6.9,6.6,8.7c2.7,1.7,6,2.7,9.8,2.7c4.3,0,8-1.4,11-4.1
				s5.1-6.8,6.3-12.2l-5.4-1.6c-0.8,4.1-2.2,7.2-4.4,9.3c-2.1,2-4.7,3.1-7.6,3.1c-4,0-7.3-1.6-9.7-4.9c-2.4-3.4-3.6-8.3-3.6-15
				c0-4.3,0.6-8,1.8-10.8c1.2-2.9,2.8-5,4.8-6.4s4.4-2,7.1-2c5.5,0,9.2,3.4,11,10.1l5.3-1.5c-1.1-4.6-3.1-8.1-6-10.4
				C391.1,81.2,387.7,79.9,383.7,79.9z"/>
		</g>
		<g transform="translate(56.4,80)">
			<path id="t_00000119813156833804377490000000316424497779323543_" d="M404.5,79.9v5.9h13.6V130h5.4V85.8h13.6v-5.9H404.5z"/>
		</g>
		<g transform="translate(18,80)">
			<path id="r_00000008860452554339789630000015372476608801016198_" d="M442.6,79.9V130h5.4v-20.4h10.5c5.7,0,9.6-1.4,11.9-4.2
				c2.3-2.9,3.5-6.6,3.5-11.1c0-3.4-0.7-6.3-2.1-8.6c-1.4-2.4-3.3-4-5.7-4.9c-1.7-0.6-4.4-0.9-8.1-0.9H442.6z M448,85.8h10.5
				c2.8,0,4.8,0.3,5.9,0.8s2,1.5,2.7,2.9c0.8,1.4,1.2,3.1,1.2,5.1c0,3-0.8,5.3-2.3,6.9c-1.6,1.5-4,2.2-7.4,2.2H448V85.8z"/>
		</g>
		<path id="u" d="M476.7,79.9l16.7,36.2c-1.2,3.6-2.3,6-3.2,7c-1,1-2.1,1.6-3.5,1.6c-1.6,0-3.1-0.6-4.6-1.6v5.6
			c2,0.8,3.8,1.2,5.3,1.2c2.1,0,3.8-0.7,5.1-2.2c1.2-1.5,2.8-4.6,4.8-9.4l15.4-38.4h-5.4l-11.7,30.2l-13.4-30.2H476.7z"/>
		<path id="k" d="M543.8,79.8c-2.3,0-4.2,0.4-5.5,1.2c-1.4,0.8-2.5,1.9-3.3,3.3c-0.8,1.4-1.8,3.8-3,7.3c-1.6,4.5-2.9,7.3-3.9,8.5
			c-1,1.2-2.7,1.7-5.2,1.7V79.9h-5.4V130h5.4v-23.4c0.2-0.1,0.4-0.1,0.5-0.1c1.4,0,2.7,0.6,4,1.7c1.3,1.2,3,3.9,5.2,8.2l6.8,13.6
			h6.8l-8.5-16.7c-2.5-5.1-5.2-8-7.8-8.9c1.4-0.7,2.5-1.6,3.5-2.8c0.9-1.1,2.1-3.8,3.4-7.9c1.2-3.7,2.3-6,3.1-6.8
			c0.9-0.9,2.1-1.3,3.6-1.3h1.2l1.1,0.1v-5.8C545.1,79.8,544.4,79.8,543.8,79.8z"/>
		<g transform="translate(199.6,80)">
			<path id="t_00000168798924320985090090000017058191862029365947_" d="M547.7,79.9v5.9h13.6V130h5.4V85.8h13.6v-5.9H547.7z"/>
		</g>
		<g transform="translate(105,0)">
			<path id="u_00000176727960094408562570000007718322656515063434_" d="M581.7,79.9l16.7,36.2c-1.2,3.6-2.3,6-3.2,7
				c-1,1-2.1,1.6-3.5,1.6c-1.6,0-3.1-0.6-4.6-1.6v5.6c2,0.8,3.8,1.2,5.3,1.2c2.1,0,3.8-0.7,5.1-2.2c1.2-1.5,2.8-4.6,4.8-9.4
				l15.4-38.4h-5.4l-11.7,30.2l-13.4-30.2H581.7z"/>
		</g>
		<g transform="translate(197.8,80)">
			<path id="r_00000160187137643497580250000002668481091695615394_" d="M622.4,79.9V130h5.4v-20.4h10.5c5.7,0,9.6-1.4,11.9-4.2
				c2.3-2.9,3.5-6.6,3.5-11.1c0-3.4-0.7-6.3-2.1-8.6c-1.4-2.4-3.3-4-5.7-4.9c-1.7-0.6-4.4-0.9-8.1-0.9H622.4z M627.8,85.8h10.5
				c2.8,0,4.8,0.3,5.9,0.8c1.1,0.5,2,1.5,2.7,2.9c0.8,1.4,1.2,3.1,1.2,5.1c0,3-0.8,5.3-2.3,6.9c-1.6,1.5-4,2.2-7.4,2.2h-10.6V85.8z"
				/>
		</g>
		<path id="y" d="M660.7,79.9V130h5.5l21.9-39.6V130h4.9V79.9h-5.5l-21.8,39.7V79.9H660.7z"/>
		<g transform="translate(237.1,0)">
			<path id="u_00000079483509314527971440000005937088633534701989_" d="M713.8,79.9l16.7,36.2c-1.2,3.6-2.3,6-3.2,7
				c-1,1-2.1,1.6-3.5,1.6c-1.6,0-3.1-0.6-4.6-1.6v5.6c2,0.8,3.8,1.2,5.3,1.2c2.1,0,3.8-0.7,5.1-2.2c1.2-1.5,2.8-4.6,4.8-9.4
				l15.4-38.4h-5.4l-11.7,30.2l-13.4-30.2H713.8z"/>
		</g>
		<g transform="translate(237,0)">
			<path id="k_00000181052660272648782630000006809535671422101891_" d="M780.8,79.8c-2.3,0-4.2,0.4-5.5,1.2
				c-1.4,0.8-2.5,1.9-3.3,3.3c-0.8,1.4-1.8,3.8-3,7.3c-1.6,4.5-2.9,7.3-3.9,8.5c-1,1.2-2.7,1.7-5.2,1.7V79.9h-5.4V130h5.4v-23.4
				c0.2-0.1,0.4-0.1,0.5-0.1c1.4,0,2.7,0.6,4,1.7c1.3,1.2,3,3.9,5.2,8.2l6.8,13.6h6.8l-8.5-16.7c-2.5-5.1-5.2-8-7.8-8.9
				c1.4-0.7,2.5-1.6,3.5-2.8c0.9-1.1,2.1-3.8,3.4-7.9c1.2-3.7,2.3-6,3.1-6.8c0.9-0.9,2.1-1.3,3.6-1.3h1.2l1.1,0.1v-5.8
				C782.1,79.8,781.4,79.8,780.8,79.8z"/>
		</g>
		<g transform="translate(363.2,80)">
			<path id="r_00000101091913407597257080000001747769654388363396_" d="M787.8,79.9V130h5.4v-20.4h10.5c5.7,0,9.6-1.4,11.9-4.2
				c2.3-2.9,3.5-6.6,3.5-11.1c0-3.4-0.7-6.3-2.1-8.6c-1.4-2.4-3.3-4-5.7-4.9c-1.7-0.6-4.4-0.9-8.1-0.9H787.8z M793.2,85.8h10.5
				c2.8,0,4.8,0.3,5.9,0.8c1.1,0.5,2,1.5,2.7,2.9c0.8,1.4,1.2,3.1,1.2,5.1c0,3-0.8,5.3-2.3,6.9c-1.6,1.5-4,2.2-7.4,2.2h-10.6V85.8z"
				/>
		</g>
		<g transform="translate(498.4,0)">
			<path id="a_00000118363524876946412070000016892693600642312347_" d="M837.4,79.9L821.6,130h5.8l4.5-15.2h17.2l4.8,15.2h6.2
				l-16.8-50.1H837.4z M840.2,85.2l2.9,10.3l4.3,13.9h-13.9l4.5-14.7L840.2,85.2z"/>
		</g>
		<g transform="translate(628.1,80)">
			<rect id="i_00000065037453357823018100000010128844355853214614_" x="865.4" y="79.9" width="5.5" height="50.1"/>
		</g>
		<g transform="translate(628,80)">
			<path id="n_00000098187873468497482070000010476530490964044979_" d="M880.3,79.9V130h5.4v-23.6h21.4V130h5.4V79.9h-5.4v20.6
				h-21.4V79.9H880.3z"/>
		</g>
		<g transform="translate(261.2,0)">
			<path id="y_00000113355171256597400300000016324753011632512673_" d="M921.9,79.9V130h5.5l21.9-39.6V130h4.9V79.9h-5.5
				l-21.8,39.7V79.9H921.9z"/>
		</g>
		<rect x="860" y="66.9" width="5.3" height="7"/>
		<rect x="870.5" y="66.9" width="5.3" height="7"/>
	</g>
</g>
</svg>
