<?xml version="1.0" encoding="utf-8"?>
<!-- Generator: Adobe Illustrator 23.1.1, SVG Export Plug-In . SVG Version: 6.00 Build 0)  -->
<svg version="1.1" id="Layer_1" xmlns="http://www.w3.org/2000/svg" xmlns:xlink="http://www.w3.org/1999/xlink" x="0px" y="0px"
	 viewBox="0 0 396.85 155.91" style="enable-background:new 0 0 396.85 155.91;" xml:space="preserve">
<g>
	<path style="fill:#DA292B;" d="M90.27,113.11V89.81H70.46v23.31H55.31l18.37,18.37c3.69,3.69,9.67,3.69,13.36,0l18.37-18.37H90.27z
		 M45.41,103.21V53.1L27.03,71.47c-3.69,3.69-3.69,9.67,0,13.36L45.41,103.21z M70.46,43.2V66.5h19.81V43.2h15.15L87.05,24.82
		c-3.69-3.69-9.67-3.69-13.36,0L55.31,43.2H70.46z M133.7,71.47L115.33,53.1v50.11l18.37-18.37
		C137.39,81.15,137.39,75.16,133.7,71.47z"/>
	<g>
		<path style="fill:#DA292B;" d="M182.75,48.04h-13.3v-9.31c0-2.45-1.81-4.25-4.25-4.25h-3.99h-2.39h-5.32v9.84h5.32v27.39h10.64
			V58.14h13.3v13.56h10.64V34.48h-10.64V48.04z"/>
		<path style="fill:#DA292B;" d="M217.86,33.95c-11.22,0-19.41,8.08-19.41,19.15s8.19,19.15,19.41,19.15s19.41-8.08,19.41-19.15
			S229.08,33.95,217.86,33.95z M217.86,61.87c-5.05,0-8.78-3.72-8.78-8.78s3.72-8.78,8.78-8.78s8.78,3.72,8.78,8.78
			S222.91,61.87,217.86,61.87z"/>
		<path style="fill:#DA292B;" d="M270.18,52.02c2.63-1.61,4.27-4.35,4.27-7.65c0-5.74-3.72-9.89-11.12-9.89h-21.01v37.23h21.01
			c7.77,0,12.29-4.52,12.29-10.74C275.62,56.97,273.5,53.74,270.18,52.02z M252.21,42.77h7.92c2.5,0,3.94,1.22,3.94,3.3
			s-1.44,3.3-3.94,3.3h-7.92V42.77z M260.88,63.52h-8.67V56.6h8.67c2.66,0,4.15,1.28,4.15,3.46
			C265.03,62.24,263.54,63.52,260.88,63.52z"/>
		<path style="fill:#DA292B;" d="M291.89,34.48l-14.68,37.23h11.33l2.36-6.86h14.95l2.36,6.86h11.54l-14.68-37.23H291.89z
			 M293.78,56.5l4.2-12.18h0.81l4.2,12.18H293.78z"/>
		<path style="fill:#DA292B;" d="M189.34,83.51h-2.82h-3.56h-13.3h-5.96h-2.29h-2.39h-5.32v9.84h5.32v27.39h10.64V93.35h13.3v27.39
			h10.64V87.77C193.6,85.06,192.05,83.51,189.34,83.51z"/>
		<path style="fill:#DA292B;" d="M218.06,82.98c-11.22,0-19.41,8.08-19.41,19.15s8.19,19.15,19.41,19.15
			c11.22,0,19.41-8.08,19.41-19.15S229.28,82.98,218.06,82.98z M218.06,110.9c-5.05,0-8.78-3.72-8.78-8.78
			c0-5.05,3.72-8.78,8.78-8.78s8.78,3.72,8.78,8.78C226.84,107.18,223.11,110.9,218.06,110.9z"/>
		<polygon style="fill:#DA292B;" points="284.01,110.9 273.91,110.9 273.91,83.51 263.27,83.51 263.27,110.9 253.16,110.9 
			253.16,83.51 242.53,83.51 242.53,120.74 247.53,120.74 253.16,120.74 284.01,120.74 290.61,120.74 294.65,120.74 294.65,83.51 
			284.01,83.51 		"/>
		<polygon style="fill:#DA292B;" points="335.87,93.35 335.87,83.51 299.7,83.51 299.7,93.35 312.46,93.35 312.46,120.74 
			323.1,120.74 323.1,93.35 		"/>
		<path style="fill:#DA292B;" d="M363.68,120.74h11.54l-14.68-37.23h-13.19l-14.68,37.23H344l2.36-6.86h14.95L363.68,120.74z
			 M349.24,105.53l4.2-12.18h0.81l4.2,12.18H349.24z"/>
	</g>
</g>
<rect y="0" style="fill:none;" width="396.85" height="155.91"/>
</svg>
